<?xml version="1.0" encoding="UTF-8"?>
<svg width="410" height="410" xmlns="http://www.w3.org/2000/svg">
<style>
  .label { font-size: 11px; font-family: Arial; }
  .cell-text { font-size: 10px; font-family: monospace; font-weight: bold; text-anchor: middle; dominant-baseline: middle; }
  .title { font-size: 16px; font-family: Arial; font-weight: bold; }
</style>
<rect width="410" height="410" fill="white"/>
<text x="205" y="30" class="title" text-anchor="middle">Solutions Similarity Heatmap</text>
<text x="205" y="50" style="font-size: 11px; font-family: Arial; text-anchor: middle;">(0.0 = different, 1.0 = identical)</text>
<rect x="150" y="150" width="60" height="60" fill="#78e6db" stroke="white" stroke-width="0.5"/>
<text x="180" y="180" class="cell-text" fill="black">1.00</text>
<rect x="210" y="150" width="60" height="60" fill="#d7e669" stroke="white" stroke-width="0.5"/>
<text x="240" y="180" class="cell-text" fill="black">0.81</text>
<rect x="270" y="150" width="60" height="60" fill="#dc8664" stroke="white" stroke-width="0.5"/>
<text x="300" y="180" class="cell-text" fill="white">0.08</text>
<rect x="330" y="150" width="60" height="60" fill="#dc7864" stroke="white" stroke-width="0.5"/>
<text x="360" y="180" class="cell-text" fill="white">0.00</text>
<rect x="150" y="210" width="60" height="60" fill="#d7e669" stroke="white" stroke-width="0.5"/>
<text x="180" y="240" class="cell-text" fill="black">0.81</text>
<rect x="210" y="210" width="60" height="60" fill="#78e6db" stroke="white" stroke-width="0.5"/>
<text x="240" y="240" class="cell-text" fill="black">1.00</text>
<rect x="270" y="210" width="60" height="60" fill="#dc8464" stroke="white" stroke-width="0.5"/>
<text x="300" y="240" class="cell-text" fill="white">0.07</text>
<rect x="330" y="210" width="60" height="60" fill="#dc7864" stroke="white" stroke-width="0.5"/>
<text x="360" y="240" class="cell-text" fill="white">0.00</text>
<rect x="150" y="270" width="60" height="60" fill="#dc8664" stroke="white" stroke-width="0.5"/>
<text x="180" y="300" class="cell-text" fill="white">0.08</text>
<rect x="210" y="270" width="60" height="60" fill="#dc8464" stroke="white" stroke-width="0.5"/>
<text x="240" y="300" class="cell-text" fill="white">0.07</text>
<rect x="270" y="270" width="60" height="60" fill="#78e6db" stroke="white" stroke-width="0.5"/>
<text x="300" y="300" class="cell-text" fill="black">1.00</text>
<rect x="330" y="270" width="60" height="60" fill="#dc9464" stroke="white" stroke-width="0.5"/>
<text x="360" y="300" class="cell-text" fill="white">0.17</text>
<rect x="150" y="330" width="60" height="60" fill="#dc7864" stroke="white" stroke-width="0.5"/>
<text x="180" y="360" class="cell-text" fill="white">0.00</text>
<rect x="210" y="330" width="60" height="60" fill="#dc7864" stroke="white" stroke-width="0.5"/>
<text x="240" y="360" class="cell-text" fill="white">0.00</text>
<rect x="270" y="330" width="60" height="60" fill="#dc9464" stroke="white" stroke-width="0.5"/>
<text x="300" y="360" class="cell-text" fill="white">0.17</text>
<rect x="330" y="330" width="60" height="60" fill="#78e6db" stroke="white" stroke-width="0.5"/>
<text x="360" y="360" class="cell-text" fill="black">1.00</text>
<text x="180" y="130" class="label" text-anchor="middle" transform="rotate(-45 180 130)">test_solution_top1</text>
<text x="240" y="130" class="label" text-anchor="middle" transform="rotate(-45 240 130)">test_solution_top2</text>
<text x="300" y="130" class="label" text-anchor="middle" transform="rotate(-45 300 130)">test_solution_top105</text>
<text x="360" y="130" class="label" text-anchor="middle" transform="rotate(-45 360 130)">test_solution_top150</text>
<text x="130" y="180" class="label" text-anchor="end" dominant-baseline="middle">test_solution_top1</text>
<text x="130" y="240" class="label" text-anchor="end" dominant-baseline="middle">test_solution_top2</text>
<text x="130" y="300" class="label" text-anchor="end" dominant-baseline="middle">test_solution_top105</text>
<text x="130" y="360" class="label" text-anchor="end" dominant-baseline="middle">test_solution_top150</text>
</svg>