<?xml version="1.0" encoding="UTF-8" standalone="no"?>
<!DOCTYPE svg PUBLIC "-//W3C//DTD SVG 1.1//EN"
 "http://www.w3.org/Graphics/SVG/1.1/DTD/svg11.dtd">
<!-- Generated by graphviz version 2.43.0 (0)
 -->
<!-- Title: HelmChart Pages: 1 -->
<svg width="1520pt" height="919pt"
 viewBox="72.00 72.00 1448.28 846.62" xmlns="http://www.w3.org/2000/svg" xmlns:xlink="http://www.w3.org/1999/xlink">
<g id="graph0" class="graph" transform="scale(1 1) rotate(0) translate(144 774.62)">
<title>HelmChart</title>
<polygon fill="white" stroke="transparent" points="-72,72 -72,-702.62 1304.28,-702.62 1304.28,72 -72,72"/>
<!-- .Values.serviceAccount -->
<g id="node1" class="node">
<title>.Values.serviceAccount</title>
<ellipse fill="#f5a623" stroke="black" stroke-width="0" cx="1225.78" cy="-214.04" rx="6.5" ry="6.5"/>
<text text-anchor="middle" x="1225.78" y="-211.24" font-family="Arial" font-size="11.00">.Values.serviceAccount</text>
</g>
<!-- ./charts/hello&#45;world/templates/serviceaccount.yaml/ServiceAccount -->
<g id="node2" class="node">
<title>./charts/hello&#45;world/templates/serviceaccount.yaml/ServiceAccount</title>
<path fill="#4a90e2" stroke="black" stroke-width="0" d="M857.41,-595.42C857.41,-595.42 783.41,-595.42 783.41,-595.42 777.41,-595.42 771.41,-589.42 771.41,-583.42 771.41,-583.42 771.41,-571.42 771.41,-571.42 771.41,-565.42 777.41,-559.42 783.41,-559.42 783.41,-559.42 857.41,-559.42 857.41,-559.42 863.41,-559.42 869.41,-565.42 869.41,-571.42 869.41,-571.42 869.41,-583.42 869.41,-583.42 869.41,-589.42 863.41,-595.42 857.41,-595.42"/>
<text text-anchor="middle" x="820.41" y="-574.62" font-family="Arial" font-size="11.00" fill="white">ServiceAccount</text>
</g>
<!-- ./charts/hello&#45;world/templates/serviceaccount.yaml/ServiceAccount&#45;&gt;.Values.serviceAccount -->
<g id="edge8" class="edge">
<title>./charts/hello&#45;world/templates/serviceaccount.yaml/ServiceAccount&#45;&gt;.Values.serviceAccount</title>
<path fill="none" stroke="#000000" stroke-opacity="0.145098" d="M840.51,-559.4C913.41,-494.05 1162.41,-270.85 1215.69,-223.08"/>
<polygon fill="#000000" fill-opacity="0.145098" stroke="#000000" stroke-opacity="0.145098" points="1217.41,-224.37 1220.48,-218.8 1214.61,-221.24 1217.41,-224.37"/>
</g>
<!-- hello&#45;world.serviceAccountName -->
<g id="node6" class="node">
<title>hello&#45;world.serviceAccountName</title>
<ellipse fill="#7ed321" stroke="black" stroke-width="0" cx="998.78" cy="-69.19" rx="9" ry="9"/>
<text text-anchor="middle" x="998.78" y="-66.39" font-family="Arial" font-size="11.00">hello&#45;world.serviceAccountName</text>
</g>
<!-- ./charts/hello&#45;world/templates/serviceaccount.yaml/ServiceAccount&#45;&gt;hello&#45;world.serviceAccountName -->
<g id="edge7" class="edge">
<title>./charts/hello&#45;world/templates/serviceaccount.yaml/ServiceAccount&#45;&gt;hello&#45;world.serviceAccountName</title>
<path fill="none" stroke="#000000" stroke-opacity="0.145098" d="M826.76,-559.33C854.89,-479.17 968.06,-156.73 993.63,-83.87"/>
<polygon fill="#000000" fill-opacity="0.145098" stroke="#000000" stroke-opacity="0.145098" points="995.69,-84.33 995.7,-77.97 991.73,-82.93 995.69,-84.33"/>
</g>
<!-- hello&#45;world.labels -->
<g id="node8" class="node">
<title>hello&#45;world.labels</title>
<ellipse fill="#7ed321" stroke="black" stroke-width="0" cx="546.6" cy="-593.17" rx="9" ry="9"/>
<text text-anchor="middle" x="546.6" y="-590.37" font-family="Arial" font-size="11.00">hello&#45;world.labels</text>
</g>
<!-- ./charts/hello&#45;world/templates/serviceaccount.yaml/ServiceAccount&#45;&gt;hello&#45;world.labels -->
<g id="edge6" class="edge">
<title>./charts/hello&#45;world/templates/serviceaccount.yaml/ServiceAccount&#45;&gt;hello&#45;world.labels</title>
<path fill="none" stroke="#000000" stroke-opacity="0.145098" d="M771.14,-580.26C707.97,-583.89 601.87,-589.99 562.19,-592.28"/>
<polygon fill="#000000" fill-opacity="0.145098" stroke="#000000" stroke-opacity="0.145098" points="561.86,-590.19 556,-592.63 562.11,-594.38 561.86,-590.19"/>
</g>
<!-- .Values.image -->
<g id="node3" class="node">
<title>.Values.image</title>
<ellipse fill="#f5a623" stroke="black" stroke-width="0" cx="992.29" cy="-403.37" rx="6.5" ry="6.5"/>
<text text-anchor="middle" x="992.29" y="-400.57" font-family="Arial" font-size="11.00">.Values.image</text>
</g>
<!-- .Values.replicaCount -->
<g id="node4" class="node">
<title>.Values.replicaCount</title>
<ellipse fill="#f5a623" stroke="black" stroke-width="0" cx="1154.23" cy="-522.45" rx="6.5" ry="6.5"/>
<text text-anchor="middle" x="1154.23" y="-519.65" font-family="Arial" font-size="11.00">.Values.replicaCount</text>
</g>
<!-- .Values.service -->
<g id="node5" class="node">
<title>.Values.service</title>
<ellipse fill="#f5a623" stroke="black" stroke-width="0" cx="124.77" cy="-6.5" rx="6.5" ry="6.5"/>
<text text-anchor="middle" x="124.77" y="-3.7" font-family="Arial" font-size="11.00">.Values.service</text>
</g>
<!-- hello&#45;world.serviceAccountName&#45;&gt;.Values.serviceAccount -->
<g id="edge5" class="edge">
<title>hello&#45;world.serviceAccountName&#45;&gt;.Values.serviceAccount</title>
<path fill="none" stroke="#000000" stroke-opacity="0.145098" d="M1006.59,-74.18C1040.49,-95.8 1174.85,-181.54 1214.63,-206.93"/>
<polygon fill="#000000" fill-opacity="0.145098" stroke="#000000" stroke-opacity="0.145098" points="1213.99,-209 1220.18,-210.46 1216.25,-205.46 1213.99,-209"/>
</g>
<!-- ./charts/hello&#45;world/templates/service.yaml/Service -->
<g id="node7" class="node">
<title>./charts/hello&#45;world/templates/service.yaml/Service</title>
<path fill="#4a90e2" stroke="black" stroke-width="0" d="M47,-329.63C47,-329.63 12,-329.63 12,-329.63 6,-329.63 0,-323.63 0,-317.63 0,-317.63 0,-305.63 0,-305.63 0,-299.63 6,-293.63 12,-293.63 12,-293.63 47,-293.63 47,-293.63 53,-293.63 59,-299.63 59,-305.63 59,-305.63 59,-317.63 59,-317.63 59,-323.63 53,-329.63 47,-329.63"/>
<text text-anchor="middle" x="29.5" y="-308.83" font-family="Arial" font-size="11.00" fill="white">Service</text>
</g>
<!-- ./charts/hello&#45;world/templates/service.yaml/Service&#45;&gt;.Values.service -->
<g id="edge2" class="edge">
<title>./charts/hello&#45;world/templates/service.yaml/Service&#45;&gt;.Values.service</title>
<path fill="none" stroke="#000000" stroke-opacity="0.145098" d="M35.17,-293.46C52.77,-237.09 106.14,-66.17 120.94,-18.79"/>
<polygon fill="#000000" fill-opacity="0.145098" stroke="#000000" stroke-opacity="0.145098" points="122.97,-19.31 122.76,-12.95 118.97,-18.05 122.97,-19.31"/>
</g>
<!-- ./charts/hello&#45;world/templates/service.yaml/Service&#45;&gt;hello&#45;world.labels -->
<g id="edge1" class="edge">
<title>./charts/hello&#45;world/templates/service.yaml/Service&#45;&gt;hello&#45;world.labels</title>
<path fill="none" stroke="#000000" stroke-opacity="0.145098" d="M59.16,-327.78C156.65,-380.86 464.89,-548.68 533.13,-585.84"/>
<polygon fill="#000000" fill-opacity="0.145098" stroke="#000000" stroke-opacity="0.145098" points="532.37,-587.82 538.65,-588.84 534.38,-584.13 532.37,-587.82"/>
</g>
<!-- hello&#45;world.fullname -->
<g id="node9" class="node">
<title>hello&#45;world.fullname</title>
<ellipse fill="#7ed321" stroke="black" stroke-width="0" cx="254.8" cy="-418.78" rx="9" ry="9"/>
<text text-anchor="middle" x="254.8" y="-415.98" font-family="Arial" font-size="11.00">hello&#45;world.fullname</text>
</g>
<!-- ./charts/hello&#45;world/templates/service.yaml/Service&#45;&gt;hello&#45;world.fullname -->
<g id="edge4" class="edge">
<title>./charts/hello&#45;world/templates/service.yaml/Service&#45;&gt;hello&#45;world.fullname</title>
<path fill="none" stroke="#000000" stroke-opacity="0.145098" d="M59.42,-325.86C108.75,-349.32 205.27,-395.22 241.03,-412.23"/>
<polygon fill="#000000" fill-opacity="0.145098" stroke="#000000" stroke-opacity="0.145098" points="240.29,-414.2 246.61,-414.89 242.09,-410.41 240.29,-414.2"/>
</g>
<!-- hello&#45;world.selectorLabels -->
<g id="node10" class="node">
<title>hello&#45;world.selectorLabels</title>
<ellipse fill="#7ed321" stroke="black" stroke-width="0" cx="208.37" cy="-621.62" rx="9" ry="9"/>
<text text-anchor="middle" x="208.37" y="-618.82" font-family="Arial" font-size="11.00">hello&#45;world.selectorLabels</text>
</g>
<!-- ./charts/hello&#45;world/templates/service.yaml/Service&#45;&gt;hello&#45;world.selectorLabels -->
<g id="edge3" class="edge">
<title>./charts/hello&#45;world/templates/service.yaml/Service&#45;&gt;hello&#45;world.selectorLabels</title>
<path fill="none" stroke="#000000" stroke-opacity="0.145098" d="M39.89,-329.64C72.49,-386.13 172.27,-559.06 200.72,-608.37"/>
<polygon fill="#000000" fill-opacity="0.145098" stroke="#000000" stroke-opacity="0.145098" points="199.01,-609.61 203.83,-613.75 202.65,-607.51 199.01,-609.61"/>
</g>
<!-- .Values.nameOverride -->
<g id="node11" class="node">
<title>.Values.nameOverride</title>
<ellipse fill="#f5a623" stroke="black" stroke-width="0" cx="720.5" cy="-342.5" rx="6.5" ry="6.5"/>
<text text-anchor="middle" x="720.5" y="-339.7" font-family="Arial" font-size="11.00">.Values.nameOverride</text>
</g>
<!-- .Values.fullnameOverride -->
<g id="node12" class="node">
<title>.Values.fullnameOverride</title>
<ellipse fill="#f5a623" stroke="black" stroke-width="0" cx="720.5" cy="-426.5" rx="6.5" ry="6.5"/>
<text text-anchor="middle" x="720.5" y="-423.7" font-family="Arial" font-size="11.00">.Values.fullnameOverride</text>
</g>
<!-- hello&#45;world.name -->
<g id="node13" class="node">
<title>hello&#45;world.name</title>
<ellipse fill="#7ed321" stroke="black" stroke-width="0" cx="555" cy="-261" rx="9" ry="9"/>
<text text-anchor="middle" x="555" y="-258.2" font-family="Arial" font-size="11.00">hello&#45;world.name</text>
</g>
<!-- ./charts/hello&#45;world/templates/deployment.yaml/Deployment -->
<g id="node14" class="node">
<title>./charts/hello&#45;world/templates/deployment.yaml/Deployment</title>
<path fill="#4a90e2" stroke="black" stroke-width="0" d="M690.22,-262.5C690.22,-262.5 634.22,-262.5 634.22,-262.5 628.22,-262.5 622.22,-256.5 622.22,-250.5 622.22,-250.5 622.22,-238.5 622.22,-238.5 622.22,-232.5 628.22,-226.5 634.22,-226.5 634.22,-226.5 690.22,-226.5 690.22,-226.5 696.22,-226.5 702.22,-232.5 702.22,-238.5 702.22,-238.5 702.22,-250.5 702.22,-250.5 702.22,-256.5 696.22,-262.5 690.22,-262.5"/>
<text text-anchor="middle" x="662.22" y="-241.7" font-family="Arial" font-size="11.00" fill="white">Deployment</text>
</g>
<!-- ./charts/hello&#45;world/templates/deployment.yaml/Deployment&#45;&gt;.Values.image -->
<g id="edge11" class="edge">
<title>./charts/hello&#45;world/templates/deployment.yaml/Deployment&#45;&gt;.Values.image</title>
<path fill="none" stroke="#000000" stroke-opacity="0.145098" d="M699.76,-262.57C773.99,-298.3 936.22,-376.38 980.77,-397.83"/>
<polygon fill="#000000" fill-opacity="0.145098" stroke="#000000" stroke-opacity="0.145098" points="979.93,-399.76 986.25,-400.47 981.76,-395.97 979.93,-399.76"/>
</g>
<!-- ./charts/hello&#45;world/templates/deployment.yaml/Deployment&#45;&gt;.Values.replicaCount -->
<g id="edge12" class="edge">
<title>./charts/hello&#45;world/templates/deployment.yaml/Deployment&#45;&gt;.Values.replicaCount</title>
<path fill="none" stroke="#000000" stroke-opacity="0.145098" d="M694.12,-262.52C791.5,-317.53 1081.97,-481.63 1142.93,-516.06"/>
<polygon fill="#000000" fill-opacity="0.145098" stroke="#000000" stroke-opacity="0.145098" points="1142.12,-518.02 1148.38,-519.14 1144.19,-514.36 1142.12,-518.02"/>
</g>
<!-- ./charts/hello&#45;world/templates/deployment.yaml/Deployment&#45;&gt;hello&#45;world.serviceAccountName -->
<g id="edge10" class="edge">
<title>./charts/hello&#45;world/templates/deployment.yaml/Deployment&#45;&gt;hello&#45;world.serviceAccountName</title>
<path fill="none" stroke="#000000" stroke-opacity="0.145098" d="M696.97,-226.4C769.93,-188.4 936.36,-101.7 985.12,-76.31"/>
<polygon fill="#000000" fill-opacity="0.145098" stroke="#000000" stroke-opacity="0.145098" points="986.36,-78.03 990.71,-73.39 984.42,-74.3 986.36,-78.03"/>
</g>
<!-- ./charts/hello&#45;world/templates/deployment.yaml/Deployment&#45;&gt;hello&#45;world.labels -->
<g id="edge13" class="edge">
<title>./charts/hello&#45;world/templates/deployment.yaml/Deployment&#45;&gt;hello&#45;world.labels</title>
<path fill="none" stroke="#000000" stroke-opacity="0.145098" d="M656.17,-262.76C635.76,-324.28 569.78,-523.28 551.39,-578.72"/>
<polygon fill="#000000" fill-opacity="0.145098" stroke="#000000" stroke-opacity="0.145098" points="549.38,-578.12 549.49,-584.47 553.37,-579.44 549.38,-578.12"/>
</g>
<!-- ./charts/hello&#45;world/templates/deployment.yaml/Deployment&#45;&gt;hello&#45;world.fullname -->
<g id="edge9" class="edge">
<title>./charts/hello&#45;world/templates/deployment.yaml/Deployment&#45;&gt;hello&#45;world.fullname</title>
<path fill="none" stroke="#000000" stroke-opacity="0.145098" d="M622.04,-261.69C533.51,-299.56 325.03,-388.74 268.92,-412.74"/>
<polygon fill="#000000" fill-opacity="0.145098" stroke="#000000" stroke-opacity="0.145098" points="267.81,-410.93 263.12,-415.22 269.47,-414.79 267.81,-410.93"/>
</g>
<!-- ./charts/hello&#45;world/templates/deployment.yaml/Deployment&#45;&gt;hello&#45;world.selectorLabels -->
<g id="edge14" class="edge">
<title>./charts/hello&#45;world/templates/deployment.yaml/Deployment&#45;&gt;hello&#45;world.selectorLabels</title>
<path fill="none" stroke="#000000" stroke-opacity="0.145098" d="M640.33,-262.69C559.89,-329.53 282.12,-560.33 220.53,-611.51"/>
<polygon fill="#000000" fill-opacity="0.145098" stroke="#000000" stroke-opacity="0.145098" points="218.82,-610.2 215.55,-615.65 221.51,-613.43 218.82,-610.2"/>
</g>
<!-- hello&#45;world.chart -->
<g id="node15" class="node">
<title>hello&#45;world.chart</title>
<ellipse fill="#7ed321" stroke="black" stroke-width="0" cx="555" cy="-471" rx="9" ry="9"/>
<text text-anchor="middle" x="555" y="-468.2" font-family="Arial" font-size="11.00">hello&#45;world.chart</text>
</g>
</g>
</svg>
