<?xml version="1.0" encoding="UTF-8"?>
<svg width="770" height="770" xmlns="http://www.w3.org/2000/svg">
<style>
  .label { font-size: 11px; font-family: Arial; }
  .cell-text { font-size: 10px; font-family: monospace; font-weight: bold; text-anchor: middle; dominant-baseline: middle; }
  .title { font-size: 16px; font-family: Arial; font-weight: bold; }
</style>
<rect width="770" height="770" fill="white"/>
<text x="385" y="30" class="title" text-anchor="middle">Solutions Similarity Heatmap</text>
<text x="385" y="50" style="font-size: 11px; font-family: Arial; text-anchor: middle;">(0.0 = different, 1.0 = identical)</text>
<rect x="150" y="150" width="60" height="60" fill="#78e6db" stroke="white" stroke-width="0.5"/>
<text x="180" y="180" class="cell-text" fill="black">1.00</text>
<rect x="210" y="150" width="60" height="60" fill="#dc9e64" stroke="white" stroke-width="0.5"/>
<text x="240" y="180" class="cell-text" fill="white">0.23</text>
<rect x="270" y="150" width="60" height="60" fill="#dcaf64" stroke="white" stroke-width="0.5"/>
<text x="300" y="180" class="cell-text" fill="white">0.33</text>
<rect x="330" y="150" width="60" height="60" fill="#dca564" stroke="white" stroke-width="0.5"/>
<text x="360" y="180" class="cell-text" fill="white">0.27</text>
<rect x="390" y="150" width="60" height="60" fill="#dca864" stroke="white" stroke-width="0.5"/>
<text x="420" y="180" class="cell-text" fill="white">0.29</text>
<rect x="450" y="150" width="60" height="60" fill="#dca164" stroke="white" stroke-width="0.5"/>
<text x="480" y="180" class="cell-text" fill="white">0.25</text>
<rect x="510" y="150" width="60" height="60" fill="#dc8564" stroke="white" stroke-width="0.5"/>
<text x="540" y="180" class="cell-text" fill="white">0.08</text>
<rect x="570" y="150" width="60" height="60" fill="#dc9b64" stroke="white" stroke-width="0.5"/>
<text x="600" y="180" class="cell-text" fill="white">0.21</text>
<rect x="630" y="150" width="60" height="60" fill="#dc9464" stroke="white" stroke-width="0.5"/>
<text x="660" y="180" class="cell-text" fill="white">0.17</text>
<rect x="690" y="150" width="60" height="60" fill="#dc9f64" stroke="white" stroke-width="0.5"/>
<text x="720" y="180" class="cell-text" fill="white">0.23</text>
<rect x="150" y="210" width="60" height="60" fill="#dc9e64" stroke="white" stroke-width="0.5"/>
<text x="180" y="240" class="cell-text" fill="white">0.23</text>
<rect x="210" y="210" width="60" height="60" fill="#78e6db" stroke="white" stroke-width="0.5"/>
<text x="240" y="240" class="cell-text" fill="black">1.00</text>
<rect x="270" y="210" width="60" height="60" fill="#dca864" stroke="white" stroke-width="0.5"/>
<text x="300" y="240" class="cell-text" fill="white">0.29</text>
<rect x="330" y="210" width="60" height="60" fill="#dc9e64" stroke="white" stroke-width="0.5"/>
<text x="360" y="240" class="cell-text" fill="white">0.23</text>
<rect x="390" y="210" width="60" height="60" fill="#dca664" stroke="white" stroke-width="0.5"/>
<text x="420" y="240" class="cell-text" fill="white">0.27</text>
<rect x="450" y="210" width="60" height="60" fill="#dc9e64" stroke="white" stroke-width="0.5"/>
<text x="480" y="240" class="cell-text" fill="white">0.23</text>
<rect x="510" y="210" width="60" height="60" fill="#dc8c64" stroke="white" stroke-width="0.5"/>
<text x="540" y="240" class="cell-text" fill="white">0.12</text>
<rect x="570" y="210" width="60" height="60" fill="#dca464" stroke="white" stroke-width="0.5"/>
<text x="600" y="240" class="cell-text" fill="white">0.26</text>
<rect x="630" y="210" width="60" height="60" fill="#dca064" stroke="white" stroke-width="0.5"/>
<text x="660" y="240" class="cell-text" fill="white">0.24</text>
<rect x="690" y="210" width="60" height="60" fill="#dc9264" stroke="white" stroke-width="0.5"/>
<text x="720" y="240" class="cell-text" fill="white">0.16</text>
<rect x="150" y="270" width="60" height="60" fill="#dcaf64" stroke="white" stroke-width="0.5"/>
<text x="180" y="300" class="cell-text" fill="white">0.33</text>
<rect x="210" y="270" width="60" height="60" fill="#dca864" stroke="white" stroke-width="0.5"/>
<text x="240" y="300" class="cell-text" fill="white">0.29</text>
<rect x="270" y="270" width="60" height="60" fill="#78e6db" stroke="white" stroke-width="0.5"/>
<text x="300" y="300" class="cell-text" fill="black">1.00</text>
<rect x="330" y="270" width="60" height="60" fill="#dcc764" stroke="white" stroke-width="0.5"/>
<text x="360" y="300" class="cell-text" fill="white">0.47</text>
<rect x="390" y="270" width="60" height="60" fill="#dcc764" stroke="white" stroke-width="0.5"/>
<text x="420" y="300" class="cell-text" fill="white">0.47</text>
<rect x="450" y="270" width="60" height="60" fill="#dc9d64" stroke="white" stroke-width="0.5"/>
<text x="480" y="300" class="cell-text" fill="white">0.22</text>
<rect x="510" y="270" width="60" height="60" fill="#dc8864" stroke="white" stroke-width="0.5"/>
<text x="540" y="300" class="cell-text" fill="white">0.10</text>
<rect x="570" y="270" width="60" height="60" fill="#dca664" stroke="white" stroke-width="0.5"/>
<text x="600" y="300" class="cell-text" fill="white">0.28</text>
<rect x="630" y="270" width="60" height="60" fill="#dc9e64" stroke="white" stroke-width="0.5"/>
<text x="660" y="300" class="cell-text" fill="white">0.23</text>
<rect x="690" y="270" width="60" height="60" fill="#dc9b64" stroke="white" stroke-width="0.5"/>
<text x="720" y="300" class="cell-text" fill="white">0.21</text>
<rect x="150" y="330" width="60" height="60" fill="#dca564" stroke="white" stroke-width="0.5"/>
<text x="180" y="360" class="cell-text" fill="white">0.27</text>
<rect x="210" y="330" width="60" height="60" fill="#dc9e64" stroke="white" stroke-width="0.5"/>
<text x="240" y="360" class="cell-text" fill="white">0.23</text>
<rect x="270" y="330" width="60" height="60" fill="#dcc764" stroke="white" stroke-width="0.5"/>
<text x="300" y="360" class="cell-text" fill="white">0.47</text>
<rect x="330" y="330" width="60" height="60" fill="#78e6db" stroke="white" stroke-width="0.5"/>
<text x="360" y="360" class="cell-text" fill="black">1.00</text>
<rect x="390" y="330" width="60" height="60" fill="#dcd264" stroke="white" stroke-width="0.5"/>
<text x="420" y="360" class="cell-text" fill="black">0.53</text>
<rect x="450" y="330" width="60" height="60" fill="#dc9d64" stroke="white" stroke-width="0.5"/>
<text x="480" y="360" class="cell-text" fill="white">0.22</text>
<rect x="510" y="330" width="60" height="60" fill="#dc8a64" stroke="white" stroke-width="0.5"/>
<text x="540" y="360" class="cell-text" fill="white">0.11</text>
<rect x="570" y="330" width="60" height="60" fill="#dc9f64" stroke="white" stroke-width="0.5"/>
<text x="600" y="360" class="cell-text" fill="white">0.24</text>
<rect x="630" y="330" width="60" height="60" fill="#dc9b64" stroke="white" stroke-width="0.5"/>
<text x="660" y="360" class="cell-text" fill="white">0.21</text>
<rect x="690" y="330" width="60" height="60" fill="#dc9464" stroke="white" stroke-width="0.5"/>
<text x="720" y="360" class="cell-text" fill="white">0.17</text>
<rect x="150" y="390" width="60" height="60" fill="#dca864" stroke="white" stroke-width="0.5"/>
<text x="180" y="420" class="cell-text" fill="white">0.29</text>
<rect x="210" y="390" width="60" height="60" fill="#dca664" stroke="white" stroke-width="0.5"/>
<text x="240" y="420" class="cell-text" fill="white">0.27</text>
<rect x="270" y="390" width="60" height="60" fill="#dcc764" stroke="white" stroke-width="0.5"/>
<text x="300" y="420" class="cell-text" fill="white">0.47</text>
<rect x="330" y="390" width="60" height="60" fill="#dcd264" stroke="white" stroke-width="0.5"/>
<text x="360" y="420" class="cell-text" fill="black">0.53</text>
<rect x="390" y="390" width="60" height="60" fill="#78e6db" stroke="white" stroke-width="0.5"/>
<text x="420" y="420" class="cell-text" fill="black">1.00</text>
<rect x="450" y="390" width="60" height="60" fill="#dca164" stroke="white" stroke-width="0.5"/>
<text x="480" y="420" class="cell-text" fill="white">0.25</text>
<rect x="510" y="390" width="60" height="60" fill="#dc8a64" stroke="white" stroke-width="0.5"/>
<text x="540" y="420" class="cell-text" fill="white">0.11</text>
<rect x="570" y="390" width="60" height="60" fill="#dc9f64" stroke="white" stroke-width="0.5"/>
<text x="600" y="420" class="cell-text" fill="white">0.24</text>
<rect x="630" y="390" width="60" height="60" fill="#dc9b64" stroke="white" stroke-width="0.5"/>
<text x="660" y="420" class="cell-text" fill="white">0.21</text>
<rect x="690" y="390" width="60" height="60" fill="#dc9764" stroke="white" stroke-width="0.5"/>
<text x="720" y="420" class="cell-text" fill="white">0.19</text>
<rect x="150" y="450" width="60" height="60" fill="#dca164" stroke="white" stroke-width="0.5"/>
<text x="180" y="480" class="cell-text" fill="white">0.25</text>
<rect x="210" y="450" width="60" height="60" fill="#dc9e64" stroke="white" stroke-width="0.5"/>
<text x="240" y="480" class="cell-text" fill="white">0.23</text>
<rect x="270" y="450" width="60" height="60" fill="#dc9d64" stroke="white" stroke-width="0.5"/>
<text x="300" y="480" class="cell-text" fill="white">0.22</text>
<rect x="330" y="450" width="60" height="60" fill="#dc9d64" stroke="white" stroke-width="0.5"/>
<text x="360" y="480" class="cell-text" fill="white">0.22</text>
<rect x="390" y="450" width="60" height="60" fill="#dca164" stroke="white" stroke-width="0.5"/>
<text x="420" y="480" class="cell-text" fill="white">0.25</text>
<rect x="450" y="450" width="60" height="60" fill="#78e6db" stroke="white" stroke-width="0.5"/>
<text x="480" y="480" class="cell-text" fill="black">1.00</text>
<rect x="510" y="450" width="60" height="60" fill="#dc8764" stroke="white" stroke-width="0.5"/>
<text x="540" y="480" class="cell-text" fill="white">0.09</text>
<rect x="570" y="450" width="60" height="60" fill="#dca364" stroke="white" stroke-width="0.5"/>
<text x="600" y="480" class="cell-text" fill="white">0.25</text>
<rect x="630" y="450" width="60" height="60" fill="#dca364" stroke="white" stroke-width="0.5"/>
<text x="660" y="480" class="cell-text" fill="white">0.26</text>
<rect x="690" y="450" width="60" height="60" fill="#dc9a64" stroke="white" stroke-width="0.5"/>
<text x="720" y="480" class="cell-text" fill="white">0.20</text>
<rect x="150" y="510" width="60" height="60" fill="#dc8564" stroke="white" stroke-width="0.5"/>
<text x="180" y="540" class="cell-text" fill="white">0.08</text>
<rect x="210" y="510" width="60" height="60" fill="#dc8c64" stroke="white" stroke-width="0.5"/>
<text x="240" y="540" class="cell-text" fill="white">0.12</text>
<rect x="270" y="510" width="60" height="60" fill="#dc8864" stroke="white" stroke-width="0.5"/>
<text x="300" y="540" class="cell-text" fill="white">0.10</text>
<rect x="330" y="510" width="60" height="60" fill="#dc8a64" stroke="white" stroke-width="0.5"/>
<text x="360" y="540" class="cell-text" fill="white">0.11</text>
<rect x="390" y="510" width="60" height="60" fill="#dc8a64" stroke="white" stroke-width="0.5"/>
<text x="420" y="540" class="cell-text" fill="white">0.11</text>
<rect x="450" y="510" width="60" height="60" fill="#dc8764" stroke="white" stroke-width="0.5"/>
<text x="480" y="540" class="cell-text" fill="white">0.09</text>
<rect x="510" y="510" width="60" height="60" fill="#78e6db" stroke="white" stroke-width="0.5"/>
<text x="540" y="540" class="cell-text" fill="black">1.00</text>
<rect x="570" y="510" width="60" height="60" fill="#dc9164" stroke="white" stroke-width="0.5"/>
<text x="600" y="540" class="cell-text" fill="white">0.15</text>
<rect x="630" y="510" width="60" height="60" fill="#dc8c64" stroke="white" stroke-width="0.5"/>
<text x="660" y="540" class="cell-text" fill="white">0.12</text>
<rect x="690" y="510" width="60" height="60" fill="#dc8664" stroke="white" stroke-width="0.5"/>
<text x="720" y="540" class="cell-text" fill="white">0.09</text>
<rect x="150" y="570" width="60" height="60" fill="#dc9b64" stroke="white" stroke-width="0.5"/>
<text x="180" y="600" class="cell-text" fill="white">0.21</text>
<rect x="210" y="570" width="60" height="60" fill="#dca464" stroke="white" stroke-width="0.5"/>
<text x="240" y="600" class="cell-text" fill="white">0.26</text>
<rect x="270" y="570" width="60" height="60" fill="#dca664" stroke="white" stroke-width="0.5"/>
<text x="300" y="600" class="cell-text" fill="white">0.28</text>
<rect x="330" y="570" width="60" height="60" fill="#dc9f64" stroke="white" stroke-width="0.5"/>
<text x="360" y="600" class="cell-text" fill="white">0.24</text>
<rect x="390" y="570" width="60" height="60" fill="#dc9f64" stroke="white" stroke-width="0.5"/>
<text x="420" y="600" class="cell-text" fill="white">0.24</text>
<rect x="450" y="570" width="60" height="60" fill="#dca364" stroke="white" stroke-width="0.5"/>
<text x="480" y="600" class="cell-text" fill="white">0.25</text>
<rect x="510" y="570" width="60" height="60" fill="#dc9164" stroke="white" stroke-width="0.5"/>
<text x="540" y="600" class="cell-text" fill="white">0.15</text>
<rect x="570" y="570" width="60" height="60" fill="#78e6db" stroke="white" stroke-width="0.5"/>
<text x="600" y="600" class="cell-text" fill="black">1.00</text>
<rect x="630" y="570" width="60" height="60" fill="#dca764" stroke="white" stroke-width="0.5"/>
<text x="660" y="600" class="cell-text" fill="white">0.28</text>
<rect x="690" y="570" width="60" height="60" fill="#dc9864" stroke="white" stroke-width="0.5"/>
<text x="720" y="600" class="cell-text" fill="white">0.19</text>
<rect x="150" y="630" width="60" height="60" fill="#dc9464" stroke="white" stroke-width="0.5"/>
<text x="180" y="660" class="cell-text" fill="white">0.17</text>
<rect x="210" y="630" width="60" height="60" fill="#dca064" stroke="white" stroke-width="0.5"/>
<text x="240" y="660" class="cell-text" fill="white">0.24</text>
<rect x="270" y="630" width="60" height="60" fill="#dc9e64" stroke="white" stroke-width="0.5"/>
<text x="300" y="660" class="cell-text" fill="white">0.23</text>
<rect x="330" y="630" width="60" height="60" fill="#dc9b64" stroke="white" stroke-width="0.5"/>
<text x="360" y="660" class="cell-text" fill="white">0.21</text>
<rect x="390" y="630" width="60" height="60" fill="#dc9b64" stroke="white" stroke-width="0.5"/>
<text x="420" y="660" class="cell-text" fill="white">0.21</text>
<rect x="450" y="630" width="60" height="60" fill="#dca364" stroke="white" stroke-width="0.5"/>
<text x="480" y="660" class="cell-text" fill="white">0.26</text>
<rect x="510" y="630" width="60" height="60" fill="#dc8c64" stroke="white" stroke-width="0.5"/>
<text x="540" y="660" class="cell-text" fill="white">0.12</text>
<rect x="570" y="630" width="60" height="60" fill="#dca764" stroke="white" stroke-width="0.5"/>
<text x="600" y="660" class="cell-text" fill="white">0.28</text>
<rect x="630" y="630" width="60" height="60" fill="#78e6db" stroke="white" stroke-width="0.5"/>
<text x="660" y="660" class="cell-text" fill="black">1.00</text>
<rect x="690" y="630" width="60" height="60" fill="#dc9464" stroke="white" stroke-width="0.5"/>
<text x="720" y="660" class="cell-text" fill="white">0.17</text>
<rect x="150" y="690" width="60" height="60" fill="#dc9f64" stroke="white" stroke-width="0.5"/>
<text x="180" y="720" class="cell-text" fill="white">0.23</text>
<rect x="210" y="690" width="60" height="60" fill="#dc9264" stroke="white" stroke-width="0.5"/>
<text x="240" y="720" class="cell-text" fill="white">0.16</text>
<rect x="270" y="690" width="60" height="60" fill="#dc9b64" stroke="white" stroke-width="0.5"/>
<text x="300" y="720" class="cell-text" fill="white">0.21</text>
<rect x="330" y="690" width="60" height="60" fill="#dc9464" stroke="white" stroke-width="0.5"/>
<text x="360" y="720" class="cell-text" fill="white">0.17</text>
<rect x="390" y="690" width="60" height="60" fill="#dc9764" stroke="white" stroke-width="0.5"/>
<text x="420" y="720" class="cell-text" fill="white">0.19</text>
<rect x="450" y="690" width="60" height="60" fill="#dc9a64" stroke="white" stroke-width="0.5"/>
<text x="480" y="720" class="cell-text" fill="white">0.20</text>
<rect x="510" y="690" width="60" height="60" fill="#dc8664" stroke="white" stroke-width="0.5"/>
<text x="540" y="720" class="cell-text" fill="white">0.09</text>
<rect x="570" y="690" width="60" height="60" fill="#dc9864" stroke="white" stroke-width="0.5"/>
<text x="600" y="720" class="cell-text" fill="white">0.19</text>
<rect x="630" y="690" width="60" height="60" fill="#dc9464" stroke="white" stroke-width="0.5"/>
<text x="660" y="720" class="cell-text" fill="white">0.17</text>
<rect x="690" y="690" width="60" height="60" fill="#78e6db" stroke="white" stroke-width="0.5"/>
<text x="720" y="720" class="cell-text" fill="black">1.00</text>
<text x="180" y="130" class="label" text-anchor="middle" transform="rotate(-45 180 130)">top1</text>
<text x="240" y="130" class="label" text-anchor="middle" transform="rotate(-45 240 130)">top2</text>
<text x="300" y="130" class="label" text-anchor="middle" transform="rotate(-45 300 130)">top5</text>
<text x="360" y="130" class="label" text-anchor="middle" transform="rotate(-45 360 130)">top10</text>
<text x="420" y="130" class="label" text-anchor="middle" transform="rotate(-45 420 130)">top11</text>
<text x="480" y="130" class="label" text-anchor="middle" transform="rotate(-45 480 130)">top72</text>
<text x="540" y="130" class="label" text-anchor="middle" transform="rotate(-45 540 130)">top105</text>
<text x="600" y="130" class="label" text-anchor="middle" transform="rotate(-45 600 130)">top135</text>
<text x="660" y="130" class="label" text-anchor="middle" transform="rotate(-45 660 130)">top211</text>
<text x="720" y="130" class="label" text-anchor="middle" transform="rotate(-45 720 130)">top260</text>
<text x="130" y="180" class="label" text-anchor="end" dominant-baseline="middle">top1</text>
<text x="130" y="240" class="label" text-anchor="end" dominant-baseline="middle">top2</text>
<text x="130" y="300" class="label" text-anchor="end" dominant-baseline="middle">top5</text>
<text x="130" y="360" class="label" text-anchor="end" dominant-baseline="middle">top10</text>
<text x="130" y="420" class="label" text-anchor="end" dominant-baseline="middle">top11</text>
<text x="130" y="480" class="label" text-anchor="end" dominant-baseline="middle">top72</text>
<text x="130" y="540" class="label" text-anchor="end" dominant-baseline="middle">top105</text>
<text x="130" y="600" class="label" text-anchor="end" dominant-baseline="middle">top135</text>
<text x="130" y="660" class="label" text-anchor="end" dominant-baseline="middle">top211</text>
<text x="130" y="720" class="label" text-anchor="end" dominant-baseline="middle">top260</text>
</svg>